<svg xmlns="http://www.w3.org/2000/svg" viewBox="0 0 128 128">
  <defs>
    <linearGradient id="bg" x1="0%" y1="0%" x2="100%" y2="100%">
      <stop offset="0%" style="stop-color:#1a73e8"/>
      <stop offset="100%" style="stop-color:#4285f4"/>
    </linearGradient>
  </defs>
  <!-- Background circle -->
  <circle cx="64" cy="64" r="60" fill="url(#bg)"/>
  <!-- AI brain/chat icon -->
  <g fill="white">
    <!-- Head outline -->
    <path d="M64 24c-22 0-40 18-40 40 0 12 5 22 14 29v15l12-8c4 2 9 3 14 3 22 0 40-18 40-40S86 24 64 24zm0 72c-4 0-8-1-12-2l-8 5v-9c-8-6-12-15-12-26 0-18 14-32 32-32s32 14 32 32-14 32-32 32z"/>
    <!-- AI sparkle dots -->
    <circle cx="48" cy="64" r="6"/>
    <circle cx="64" cy="64" r="6"/>
    <circle cx="80" cy="64" r="6"/>
  </g>
</svg>
